<?xml version="1.0" encoding="utf-8"?>
<!-- Generator: Adobe Illustrator 23.0.3, SVG Export Plug-In . SVG Version: 6.00 Build 0)  -->
<svg version="1.1" id="Capa_1" xmlns="http://www.w3.org/2000/svg" xmlns:xlink="http://www.w3.org/1999/xlink" x="0px" y="0px"
	 viewBox="0 0 1200 1200" enable-background="new 0 0 1200 1200" xml:space="preserve">
<g>
	<path fill="#BF3E41" d="M1026.131,516.879c0,0-4.7-0.957-13.025-2.622v-26.522v-8.356v-23.494c0-7.213,5.901-13.115,13.115-13.115
		h63.508l-39.035,44.965h-11.008v29.144H1026.131z M935.598,577.08c-18.765,0-36.185,5.743-50.61,15.56
		c11.784-5.964,25.097-9.346,39.208-9.346c48.031,0,86.968,38.937,86.968,86.968c0,22.523-8.562,43.046-22.609,58.492h12.731
		c15.114-16.111,24.387-37.766,24.387-61.599C1025.673,617.408,985.345,577.08,935.598,577.08z M363.177,658.074
		c3.482-0.953,7.995-2.185,13.327-3.633c-6.18-43.723-43.735-77.36-89.164-77.36c-20.352,0-39.122,6.756-54.204,18.139
		c12.897-7.569,27.907-11.927,43.941-11.927C320.969,583.294,357.247,615.816,363.177,658.074z M362.584,686.072
		c-2.988,16.258-10.472,30.942-21.15,42.684h11.594c0.001-0.001,0.001-0.001,0.001-0.002c11.808-12.587,20.026-28.568,23.066-46.318
		C371.283,683.726,366.762,684.943,362.584,686.072z"/>
	<path fill="#FF5257" d="M837.228,670.262c0,22.523,8.562,43.046,22.609,58.492H353.029c11.808-12.587,20.026-28.568,23.066-46.318
		c56.8-15.23,153.434-40.409,187.372-44.791c49.245-6.359,5.963,84.262,102.359,55.924c71.173-20.924,144.01-44.051,177.28-54.729
		C839.325,648.588,837.228,659.177,837.228,670.262z M1147.049,663.26c0.123,36-29.296,65.494-65.268,65.494h-56.459h-2.142h-21.894
		c15.114-16.111,24.387-37.766,24.387-61.599c0-49.747-40.328-90.075-90.075-90.075c-18.765,0-36.185,5.743-50.61,15.56
		c-5.514,2.791-10.694,6.143-15.455,9.997c-29.665,9.55-107.487,34.379-183.395,56.695c-96.395,28.339-51.341-61.888-100.586-55.53
		c-38.809,5.011-159.589,37.213-209.048,50.64c-6.18-43.723-43.735-77.36-89.164-77.36c-20.352,0-39.122,6.756-54.204,18.139
		c-25.736,15.103-43.027,43.045-43.027,75.041c0,22.523,8.562,43.046,22.609,58.492H75.237c-14.245,0-25.667-11.782-25.225-26.021
		l0.803-25.862c0.635-20.439,12.281-38.918,30.439-48.322c38.377-19.876,105.008-53.26,142.281-65.439
		c7.003-2.288,13.389-4.298,19.238-6.078c16.1-8.409,34.356-13.198,53.687-13.198h84.634c5.169,0,10.262-1.205,14.876-3.532
		c44.989-22.692,172.954-84.716,231.93-87.003c63.6-2.466,323.88,48.691,385.204,60.958c8.325,1.665,13.025,2.622,13.025,2.622
		h13.554h97.29c7.107,0,13.002,5.707,13.025,12.815c0.073,22.765-11.684,42.903-29.423,54.648h13.448
		c7.083,0,12.995,5.665,13.025,12.748c0.093,21.96-10.843,41.457-27.519,53.37h14.494
		C1141.127,650.459,1147.025,656.158,1147.049,663.26z M125.053,673.587c0-4.971-4.067-9.037-9.037-9.037H71.474
		c-4.97,0-9.037,4.067-9.037,9.037v25.833c0,4.97,4.067,9.037,9.037,9.037h44.542c4.97,0,9.037-4.067,9.037-9.037V673.587z
		 M165.993,612.797c-0.617-6.84-7.905-10.95-14.133-8.056c-18.986,8.823-55.429,26.244-53.419,29.059
		c2.712,3.796,57.49-5.966,64.541-10.305C165.894,621.704,166.401,617.323,165.993,612.797z M795.394,492.179
		c-36.83-6.04-129.663-18.728-171.355-17.536c-39.275,1.123-144.446,43.295-173.223,60.525c-4.651,2.785-2.667,9.916,2.754,9.901
		c42.006-0.115,168.926-2.14,211.095-1.745c39.264,0.367,108.27-29.372,132.22-41.106
		C801.543,499.937,800.513,493.019,795.394,492.179z M1083.014,487.735c17.517,0,31.85-14.332,31.85-31.85v0
		c0-7.213-5.901-13.115-13.114-13.115h-12.022l-39.035,44.965H1083.014z"/>
	<path fill="#E6E6E6" d="M363.177,658.074c3.482-0.953,7.995-2.185,13.327-3.633c49.459-13.426,170.239-45.628,209.048-50.64
		c49.245-6.359,4.191,83.868,100.586,55.53c75.909-22.316,153.73-47.144,183.395-56.695c-11.706,9.474-20.891,21.925-26.428,36.202
		c-33.269,10.678-106.107,33.805-177.28,54.729c-96.395,28.339-53.113-62.283-102.359-55.924
		c-33.938,4.382-130.572,29.561-187.372,44.791c-4.811,1.29-9.333,2.508-13.511,3.636c0.943-5.13,1.46-10.408,1.46-15.81
		C364.044,666.124,363.736,662.059,363.177,658.074z M151.86,604.741c-18.986,8.823-55.429,26.244-53.419,29.059
		c2.712,3.796,57.49-5.966,64.541-10.305c2.911-1.791,3.418-6.172,3.01-10.698C165.376,605.957,158.088,601.847,151.86,604.741z"/>
	<path fill="#808080" d="M277.077,612.721c-31.779,0-57.541,25.762-57.541,57.541c0,31.779,25.762,57.541,57.541,57.541
		c31.779,0,57.541-25.762,57.541-57.541C334.618,638.483,308.856,612.721,277.077,612.721z M277.077,690.234
		c-11.03,0-19.972-8.942-19.972-19.972c0-11.03,8.942-19.972,19.972-19.972c11.03,0,19.972,8.942,19.972,19.972
		C297.049,681.292,288.107,690.234,277.077,690.234z M924.196,612.721c-31.779,0-57.541,25.762-57.541,57.541
		c0,31.779,25.762,57.541,57.541,57.541c31.779,0,57.541-25.762,57.541-57.541C981.737,638.483,955.975,612.721,924.196,612.721z
		 M924.196,690.234c-11.03,0-19.972-8.942-19.972-19.972c0-11.03,8.942-19.972,19.972-19.972c11.03,0,19.972,8.942,19.972,19.972
		C944.168,681.292,935.227,690.234,924.196,690.234z"/>
	<path fill="#2F3236" d="M796.885,502.219c-23.95,11.734-92.956,41.472-132.22,41.106c-42.169-0.394-169.09,1.63-211.095,1.745
		c-5.421,0.015-7.404-7.117-2.754-9.901c28.777-17.23,133.948-59.403,173.223-60.525c41.692-1.192,134.525,11.496,171.355,17.536
		C800.513,493.019,801.543,499.937,796.885,502.219z M116.015,664.55H71.474c-4.97,0-9.037,4.067-9.037,9.037v25.833
		c0,4.97,4.067,9.037,9.037,9.037h44.542c4.97,0,9.037-4.067,9.037-9.037v-25.833C125.053,668.617,120.986,664.55,116.015,664.55z
		 M362.584,686.072c-2.988,16.258-10.472,30.942-21.15,42.684c-15.908,17.492-38.85,28.474-64.357,28.474
		c-25.508,0-48.451-10.982-64.359-28.475c-14.047-15.446-22.609-35.969-22.609-58.492c0-31.996,17.291-59.938,43.027-75.041
		c12.897-7.569,27.907-11.927,43.941-11.927c43.893,0,80.171,32.522,86.1,74.78c0.559,3.984,0.868,8.049,0.868,12.187
		C364.044,675.664,363.527,680.943,362.584,686.072z M334.618,670.262c0-31.779-25.762-57.541-57.541-57.541
		c-31.779,0-57.541,25.762-57.541,57.541c0,31.779,25.762,57.541,57.541,57.541C308.856,727.803,334.618,702.041,334.618,670.262z
		 M277.077,650.29c-11.03,0-19.972,8.942-19.972,19.972c0,11.03,8.942,19.972,19.972,19.972c11.03,0,19.972-8.942,19.972-19.972
		C297.049,659.232,288.107,650.29,277.077,650.29z M1011.164,670.262c0,22.523-8.562,43.046-22.609,58.492
		c-15.908,17.493-38.851,28.475-64.359,28.475s-48.451-10.982-64.359-28.475c-14.047-15.446-22.609-35.969-22.609-58.492
		c0-11.085,2.096-21.674,5.877-31.423c5.537-14.277,14.722-26.728,26.428-36.202c4.761-3.854,9.941-7.206,15.455-9.997
		c11.784-5.964,25.097-9.346,39.208-9.346C972.227,583.294,1011.164,622.231,1011.164,670.262z M981.737,670.262
		c0-31.779-25.762-57.541-57.541-57.541c-31.779,0-57.541,25.762-57.541,57.541c0,31.779,25.762,57.541,57.541,57.541
		C955.975,727.803,981.737,702.041,981.737,670.262z M924.196,650.29c-11.03,0-19.972,8.942-19.972,19.972
		c0,11.03,8.942,19.972,19.972,19.972c11.03,0,19.972-8.942,19.972-19.972C944.168,659.232,935.227,650.29,924.196,650.29z"/>
</g>
</svg>
